<?xml version="1.0" encoding="UTF-8" standalone="no"?>
<svg
   xmlns:dc="http://purl.org/dc/elements/1.1/"
   xmlns:cc="http://creativecommons.org/ns#"
   xmlns:rdf="http://www.w3.org/1999/02/22-rdf-syntax-ns#"
   xmlns:svg="http://www.w3.org/2000/svg"
   xmlns="http://www.w3.org/2000/svg"
   width="140.69241"
   height="140.6936"
   viewBox="0 0 37.224868 37.225183"
   version="1.1"
   id="svg8">
  <g
     transform="matrix(0.91642373,0.37959513,-0.37959513,0.91642373,104.95842,-237.86983)"
     id="g4732">
    <path
       d="m 34.284558,269.58686 c 0.0816,0.39668 0.14004,0.82297 0.21448,1.26822 l 2.7501,-0.32283 c -0.0704,-0.50951 -0.10342,-1.03058 -0.2525,-1.49305 z m 0.19433,5.05082 c -0.059,0.40068 -0.14988,0.82123 -0.23221,1.2651 l 2.69466,0.63722 c 0.10806,-0.50288 0.25528,-1.00379 0.27338,-1.48936 z m 0.09565,-2.5216 c 0.0143,0.40475 9.5e-4,0.8348 0,1.28624 l 2.76541,0.14031 c 0.0155,-0.51412 0.0699,-1.03339 0,-1.51425 z m -31.3128216,3.87905 c -0.0816,-0.39668 -0.14004,-0.82297 -0.21448,-1.26822 l -2.75009995,0.32283 c 0.0704,0.50951 0.10342,1.03058 0.2525,1.49305 z m -0.19433,-5.05082 c 0.059,-0.40068 0.14988,-0.82123 0.23221,-1.2651 l -2.69465995,-0.63722 c -0.10806,0.50288 -0.25528,1.00379 -0.27338,1.48936 z m -0.09565,2.5216 c -0.0143,-0.40475 -9.5e-4,-0.8348 0,-1.28624 l -2.76540995,-0.14031 c -0.0155,0.51412 -0.0699,1.03339 0,1.51425 z m 19.1348976,14.00563 c -0.396686,0.0816 -0.82297,0.14004 -1.268224,0.21448 l 0.322835,2.7501 c 0.50951,-0.0704 1.030573,-0.10342 1.493049,-0.2525 z m -5.050822,0.19433 c -0.400676,-0.059 -0.821234,-0.14988 -1.265099,-0.23221 l -0.637223,2.69466 c 0.502878,0.10806 1.003797,0.25528 1.489367,0.27338 z m 2.521599,0.0956 c -0.404744,0.0143 -0.834796,9.5e-4 -1.286235,0 l -0.140316,2.76541 c 0.514125,0.0155 1.033391,0.0699 1.514249,0 z m -3.87894,-31.14604 c 0.396686,-0.0816 0.82297,-0.14004 1.268224,-0.21448 l -0.322835,-2.7501 c -0.50951,0.0704 -1.030573,0.10342 -1.493049,0.2525 z m 5.050822,-0.19433 c 0.400676,0.059 0.821234,0.14988 1.265099,0.23221 l 0.637223,-2.69466 c -0.502878,-0.10806 -1.003797,-0.25528 -1.489367,-0.27338 z m -2.521599,-0.0956 c 0.404744,-0.0143 0.834797,-9.6e-4 1.286235,0 l 0.140316,-2.76541 c -0.514125,-0.0155 -1.033391,-0.0699 -1.514249,0 z"
       class="logo-outer-circle"
       style="fill:#422c79;fill-opacity:1;stroke:none;stroke-width:0.105;stroke-linecap:butt;stroke-linejoin:miter;stroke-miterlimit:4;stroke-dasharray:none;stroke-opacity:1"
       id="path4575-4-6-34-8" />
  </g>
  <path
     d="M 22.635751,22.258358 19.354004,33.676091 14.966665,22.635899 3.5489306,19.35415 14.589123,14.966822 17.87087,3.5490889 22.258204,14.58927 33.675937,17.87102 Z"
     id="path4770-5"
     class="logo-blue-star-1"
     style="opacity:1;vector-effect:none;fill:#efecf8;fill-opacity:1;stroke:none;stroke-width:0.12392259;stroke-linecap:butt;stroke-linejoin:bevel;stroke-miterlimit:4;stroke-dasharray:none;stroke-dashoffset:0;stroke-opacity:1;paint-order:markers fill stroke" />
  <path
    d="m 16.097423,12.63498 8.209035,-7.98796 0.283589,11.45056 7.987961,8.20904 -11.450561,0.28359 -8.209035,7.98796 -0.28359,-11.45056 -7.9879599,-8.20904 z"
    id="path4770"
    class="logo-blue-star-1"
    style="opacity:1;vector-effect:none;fill:#efecf8;fill-opacity:1;stroke:none;stroke-width:0.12392253;stroke-linecap:butt;stroke-linejoin:bevel;stroke-miterlimit:4;stroke-dasharray:none;stroke-dashoffset:0;stroke-opacity:1;paint-order:markers fill stroke" />
  <path
     d="m 15.259506,13.802068 4.383605,-0.961904 3.779849,2.4195 0.961907,4.383603 -2.419506,3.779849 -4.383606,0.961919 L 13.801907,21.96552 12.84,17.581917 Z"
     id="path4757"
     class="logo-blue-star-2"
     style="opacity:1;vector-effect:none;fill:#005c00;fill-opacity:1;stroke:none;stroke-width:0.20050311;stroke-linecap:butt;stroke-linejoin:bevel;stroke-miterlimit:4;stroke-dasharray:none;stroke-dashoffset:0;stroke-opacity:1;paint-order:markers fill stroke" />
  <path
     id="path4564"
     d="M 9.6046653,28.23289 7.9842723,26.58336 V 20.45857 L 9.6208103,18.822 h 7.3045207 l 1.641267,1.64117 v 6.12114 l -1.646637,1.64675 z"
     class="logo-yellow-octagon"
     style="fill:#fff8c4;fill-opacity:1;stroke:none;stroke-width:0.12869719;stroke-linecap:butt;stroke-linejoin:miter;stroke-miterlimit:4;stroke-dasharray:none;stroke-opacity:1" />
</svg>
