<?xml version="1.0" encoding="UTF-8" standalone="no"?>
<!-- Created with Inkscape (http://www.inkscape.org/) -->

<svg
   xmlns:dc="http://purl.org/dc/elements/1.1/"
   xmlns:cc="http://creativecommons.org/ns#"
   xmlns:rdf="http://www.w3.org/1999/02/22-rdf-syntax-ns#"
   xmlns:svg="http://www.w3.org/2000/svg"
   xmlns="http://www.w3.org/2000/svg"
   xmlns:sodipodi="http://sodipodi.sourceforge.net/DTD/sodipodi-0.dtd"
   xmlns:inkscape="http://www.inkscape.org/namespaces/inkscape"
   width="50"
   height="75"
   viewBox="0 0 13.229167 19.84375"
   version="1.1"
   id="svg8"
   inkscape:version="0.92.1 r15371"
   sodipodi:docname="homepage-icon.svg"
   inkscape:export-filename="C:\Users\Owner\code\wheelchairWiki\client\public\assets\icons\homepage-icon.png"
   inkscape:export-xdpi="119.18353"
   inkscape:export-ydpi="119.18353">
  <defs
     id="defs2">
    <filter
       style="color-interpolation-filters:sRGB"
       inkscape:label="Drop Shadow"
       id="filter5715">
      <feFlood
         flood-opacity="0.498039"
         flood-color="rgb(0,0,0)"
         result="flood"
         id="feFlood5705" />
      <feComposite
         in="flood"
         in2="SourceGraphic"
         operator="in"
         result="composite1"
         id="feComposite5707" />
      <feGaussianBlur
         in="composite1"
         stdDeviation="3.9"
         result="blur"
         id="feGaussianBlur5709" />
      <feOffset
         dx="-7.2"
         dy="4.7"
         result="offset"
         id="feOffset5711" />
      <feComposite
         in="SourceGraphic"
         in2="offset"
         operator="over"
         result="fbSourceGraphic"
         id="feComposite5713" />
      <feColorMatrix
         result="fbSourceGraphicAlpha"
         in="fbSourceGraphic"
         values="0 0 0 -1 0 0 0 0 -1 0 0 0 0 -1 0 0 0 0 1 0"
         id="feColorMatrix5717" />
      <feFlood
         id="feFlood5719"
         flood-opacity="0.498039"
         flood-color="rgb(0,0,0)"
         result="flood"
         in="fbSourceGraphic" />
      <feComposite
         in2="fbSourceGraphic"
         id="feComposite5721"
         in="flood"
         operator="in"
         result="composite1" />
      <feGaussianBlur
         id="feGaussianBlur5723"
         in="composite1"
         stdDeviation="3.5"
         result="blur" />
      <feOffset
         id="feOffset5725"
         dx="-4.6"
         dy="5.1"
         result="offset" />
      <feComposite
         in2="offset"
         id="feComposite5727"
         in="fbSourceGraphic"
         operator="over"
         result="composite2" />
    </filter>
    <filter
       style="color-interpolation-filters:sRGB"
       inkscape:label="Drop Shadow"
       id="filter4782">
      <feFlood
         flood-opacity="0.231373"
         flood-color="rgb(15,15,15)"
         result="flood"
         id="feFlood4772" />
      <feComposite
         in="flood"
         in2="SourceGraphic"
         operator="out"
         result="composite1"
         id="feComposite4774" />
      <feGaussianBlur
         in="composite1"
         stdDeviation="0.8"
         result="blur"
         id="feGaussianBlur4776" />
      <feOffset
         dx="1.6"
         dy="1.3"
         result="offset"
         id="feOffset4778" />
      <feComposite
         in="offset"
         in2="SourceGraphic"
         operator="atop"
         result="composite2"
         id="feComposite4780" />
    </filter>
  </defs>
  <sodipodi:namedview
     id="base"
     pagecolor="#ffffff"
     bordercolor="#666666"
     borderopacity="1.0"
     inkscape:pageopacity="0.0"
     inkscape:pageshadow="2"
     inkscape:zoom="5.6568543"
     inkscape:cx="13.79342"
     inkscape:cy="50.278931"
     inkscape:document-units="mm"
     inkscape:current-layer="layer1"
     showgrid="false"
     units="px"
     inkscape:window-width="1920"
     inkscape:window-height="986"
     inkscape:window-x="-11"
     inkscape:window-y="-11"
     inkscape:window-maximized="1" />
  <metadata
     id="metadata5">
    <rdf:RDF>
      <cc:Work
         rdf:about="">
        <dc:format>image/svg+xml</dc:format>
        <dc:type
           rdf:resource="http://purl.org/dc/dcmitype/StillImage" />
        <dc:title />
      </cc:Work>
    </rdf:RDF>
  </metadata>
  <g
     inkscape:label="Layer 1"
     inkscape:groupmode="layer"
     id="layer1"
     transform="translate(0,-277.15624)">
    <ellipse
       style="opacity:0.18800001;vector-effect:none;fill:#aca8fd;fill-opacity:1;stroke:none;stroke-width:0.29068977;stroke-linecap:butt;stroke-linejoin:bevel;stroke-miterlimit:3.9000001;stroke-dasharray:none;stroke-dashoffset:523.53900146;stroke-opacity:1;paint-order:markers fill stroke"
       id="path4509-2"
       cx="6.8130212"
       cy="295.74323"
       rx="0.62271589"
       ry="0.62265509" />
    <ellipse
       style="opacity:0.117;vector-effect:none;fill:#f80000;fill-opacity:1;stroke:none;stroke-width:0.3050147;stroke-linecap:butt;stroke-linejoin:bevel;stroke-miterlimit:3.9000001;stroke-dasharray:none;stroke-dashoffset:523.53900146;stroke-opacity:1;paint-order:markers fill stroke"
       id="path4509-4-2"
       cx="6.7138009"
       cy="282.97705"
       rx="3.7834766"
       ry="3.7835207" />
    <path
       style="opacity:0.96;vector-effect:none;fill:#f1f100;fill-opacity:1;stroke:#0d0009;stroke-width:1.09154582;stroke-linecap:butt;stroke-linejoin:bevel;stroke-miterlimit:3.9000001;stroke-dasharray:none;stroke-dashoffset:523.53900146;stroke-opacity:1;paint-order:markers fill stroke"
       d="M 25.626953 0.8828125 C 14.672851 0.82876526 1.6211216 7.2348281 2.015625 21.365234 C 2.4101284 35.495678 25.626953 68.056641 25.626953 68.056641 C 25.626953 68.056641 48.972995 35.639603 49.240234 21.365234 C 49.507485 7.0909037 36.581055 0.93685974 25.626953 0.8828125 z M 25.625 7.4511719 A 14.452909 14.453077 0 0 1 40.078125 21.904297 A 14.452909 14.453077 0 0 1 25.625 36.357422 A 14.452909 14.453077 0 0 1 11.171875 21.904297 A 14.452909 14.453077 0 0 1 25.625 7.4511719 z "
       transform="matrix(0.26458333,0,0,0.26458333,0,277.15624)"
       id="path4506"
       inkscape:export-xdpi="120"
       inkscape:export-ydpi="120" />
    <path
       style="opacity:1;vector-effect:none;fill:#50120f;fill-opacity:1;stroke:#50120f;stroke-width:1.13385832;stroke-linecap:butt;stroke-linejoin:bevel;stroke-miterlimit:3.9000001;stroke-dasharray:none;stroke-dashoffset:523.53900146;stroke-opacity:1;paint-order:markers fill stroke"
       d="M 25.625 66.167969 A 3.9774757 4.1037445 0 0 0 21.648438 70.271484 A 3.9774757 4.1037445 0 0 0 25.625 74.375 A 3.9774757 4.1037445 0 0 0 29.601562 70.271484 A 3.9774757 4.1037445 0 0 0 25.625 66.167969 z M 25.625 68.044922 A 2.3535719 2.3533421 0 0 1 27.978516 70.398438 A 2.3535719 2.3533421 0 0 1 25.625 72.751953 A 2.3535719 2.3533421 0 0 1 23.271484 70.398438 A 2.3535719 2.3533421 0 0 1 25.625 68.044922 z "
       transform="matrix(0.26458333,0,0,0.26458333,0,277.15624)"
       id="path4507" />
    <g
       id="g5126"
       transform="translate(1.1740885,-0.44648438)">
      <g
         id="g4732"
         transform="matrix(0.17632535,0.07303635,-0.07303635,0.17632535,22.209701,233.97914)">
        <path
           id="path4575-4-6-34-8"
           style="fill:#422c79;fill-opacity:1;stroke:none;stroke-width:0.105;stroke-linecap:butt;stroke-linejoin:miter;stroke-miterlimit:4;stroke-dasharray:none;stroke-opacity:1"
           class="logo-outer-circle"
           d="m 34.284558,269.58686 c 0.0816,0.39668 0.14004,0.82297 0.21448,1.26822 l 2.7501,-0.32283 c -0.0704,-0.50951 -0.10342,-1.03058 -0.2525,-1.49305 z m 0.19433,5.05082 c -0.059,0.40068 -0.14988,0.82123 -0.23221,1.2651 l 2.69466,0.63722 c 0.10806,-0.50288 0.25528,-1.00379 0.27338,-1.48936 z m 0.09565,-2.5216 c 0.0143,0.40475 9.5e-4,0.8348 0,1.28624 l 2.76541,0.14031 c 0.0155,-0.51412 0.0699,-1.03339 0,-1.51425 z m -31.3128216,3.87905 c -0.0816,-0.39668 -0.14004,-0.82297 -0.21448,-1.26822 l -2.75009995,0.32283 c 0.0704,0.50951 0.10342,1.03058 0.2525,1.49305 z m -0.19433,-5.05082 c 0.059,-0.40068 0.14988,-0.82123 0.23221,-1.2651 l -2.69465995,-0.63722 c -0.10806,0.50288 -0.25528,1.00379 -0.27338,1.48936 z m -0.09565,2.5216 c -0.0143,-0.40475 -9.5e-4,-0.8348 0,-1.28624 l -2.76540995,-0.14031 c -0.0155,0.51412 -0.0699,1.03339 0,1.51425 z m 19.1348976,14.00563 c -0.396686,0.0816 -0.82297,0.14004 -1.268224,0.21448 l 0.322835,2.7501 c 0.50951,-0.0704 1.030573,-0.10342 1.493049,-0.2525 z m -5.050822,0.19433 c -0.400676,-0.059 -0.821234,-0.14988 -1.265099,-0.23221 l -0.637223,2.69466 c 0.502878,0.10806 1.003797,0.25528 1.489367,0.27338 z m 2.521599,0.0956 c -0.404744,0.0143 -0.834796,9.5e-4 -1.286235,0 l -0.140316,2.76541 c 0.514125,0.0155 1.033391,0.0699 1.514249,0 z m -3.87894,-31.14604 c 0.396686,-0.0816 0.82297,-0.14004 1.268224,-0.21448 l -0.322835,-2.7501 c -0.50951,0.0704 -1.030573,0.10342 -1.493049,0.2525 z m 5.050822,-0.19433 c 0.400676,0.059 0.821234,0.14988 1.265099,0.23221 l 0.637223,-2.69466 c -0.502878,-0.10806 -1.003797,-0.25528 -1.489367,-0.27338 z m -2.521599,-0.0956 c 0.404744,-0.0143 0.834797,-9.6e-4 1.286235,0 l 0.140316,-2.76541 c -0.514125,-0.0155 -1.033391,-0.0699 -1.514249,0 z"
           inkscape:connector-curvature="0" />
      </g>
      <path
         style="opacity:1;vector-effect:none;fill:#efecf8;fill-opacity:1;stroke:none;stroke-width:0.02384344;stroke-linecap:butt;stroke-linejoin:bevel;stroke-miterlimit:4;stroke-dasharray:none;stroke-dashoffset:0;stroke-opacity:1;paint-order:markers fill stroke"
         class="logo-blue-star-1"
         id="path4770-5"
         d="m 6.3703308,284.02936 -0.6314279,2.19683 -0.8441494,-2.1242 -2.1968398,-0.63143 2.1241981,-0.84414 0.6314279,-2.19685 0.8441484,2.12421 2.1968407,0.63143 z"
         inkscape:connector-curvature="0" />
      <path
         style="opacity:1;vector-effect:none;fill:#efecf8;fill-opacity:1;stroke:none;stroke-width:0.02384342;stroke-linecap:butt;stroke-linejoin:bevel;stroke-miterlimit:4;stroke-dasharray:none;stroke-dashoffset:0;stroke-opacity:1;paint-order:markers fill stroke"
         class="logo-blue-star-1"
         id="path4770"
         d="m 5.1123176,282.17777 1.5794673,-1.53694 0.054564,2.20316 1.5369306,1.57946 -2.203156,0.0546 -1.5794664,1.53692 -0.054564,-2.20315 -1.5369307,-1.57946 z"
         inkscape:connector-curvature="0" />
      <path
         style="opacity:1;vector-effect:none;fill:#005c00;fill-opacity:1;stroke:none;stroke-width:0.03857798;stroke-linecap:butt;stroke-linejoin:bevel;stroke-miterlimit:4;stroke-dasharray:none;stroke-dashoffset:0;stroke-opacity:1;paint-order:markers fill stroke"
         class="logo-blue-star-2"
         id="path4757"
         d="m 4.9510977,282.40232 0.8434315,-0.18508 0.7272656,0.46553 0.1850766,0.84343 -0.4655274,0.72726 -0.8434315,0.18508 -0.7272656,-0.46552 -0.1850766,-0.84344 z"
         inkscape:connector-curvature="0" />
      <path
         style="fill:#fff8c4;fill-opacity:1;stroke:none;stroke-width:0.0247621;stroke-linecap:butt;stroke-linejoin:miter;stroke-miterlimit:4;stroke-dasharray:none;stroke-opacity:1"
         class="logo-yellow-octagon"
         d="M 3.8630728,285.17889 3.5512994,284.8615 v -1.17844 l 0.3148799,-0.31488 h 1.4054329 l 0.3157896,0.31577 v 1.17774 l -0.3168224,0.31685 z"
         id="path4564"
         inkscape:connector-curvature="0" />
    </g>
  </g>
</svg>
